<?xml version="1.0" encoding="utf-8"?>
<!-- Generator: Adobe Illustrator 19.1.0, SVG Export Plug-In . SVG Version: 6.00 Build 0)  -->
<svg version="1.1" id="Layer_1" xmlns="http://www.w3.org/2000/svg" xmlns:xlink="http://www.w3.org/1999/xlink" x="0px" y="0px"
	 viewBox="0 0 193.2 55.1" style="enable-background:new 0 0 193.2 55.1;" xml:space="preserve">
<style type="text/css">
	.st0{fill:#141428;}
</style>
<path class="st0" d="M121.5,0.4l-9.1,37.7c-0.7,3.1-0.9,5.7-0.9,5.7h-0.1c-0.1,0-0.1-2.6-1-5.8l-9.5-37.7l-8.6,0L82.2,38
	c-0.9,3.1-0.9,5.7-1,5.7h-0.1c0,0-0.2-2.7-0.9-5.7L73.8,9.7l-4.9,20.6l6,24.5l11.4,0l8.5-32.2c0.9-3.5,1.4-7.1,1.4-7.1h0.1
	c0,0,0.5,3.6,1.4,7.1l8.3,32.3l11.4,0l14.2-54.4L121.5,0.4z"/>
<path class="st0" d="M173.9,38.3c-0.7,3.1-0.9,5.7-0.9,5.7l-0.2,0c-0.1,0-0.1-2.6-0.9-5.7l-9.6-37.7l-8.6,0l-10,37.7
	c-0.8,3.1-0.9,5.8-1,5.7l-0.1,0c0,0-0.2-2.7-0.9-5.8l-6.4-28.4l-4.9,20.6l6.1,24.6l11.4,0l8.4-32.2c1-3.5,1.4-7.1,1.4-7.1l0.2,0
	c0,0,0.5,3.6,1.4,7.1l8.3,32.3l11.4,0.1l14.2-54.5l-10.2,0L173.9,38.3z"/>
<path class="st0" d="M60,0.2l-9.1,37.7c-0.7,3-0.9,5.8-0.9,5.8l-0.1,0c-0.1,0-0.1-2.6-1-5.7L39.3,0.1l-8.6,0l-9.9,37.7
	c-0.8,3.1-0.9,5.7-1,5.7h-0.2c0,0-0.2-2.7-0.9-5.7L10.2,0L0,0l13.5,54.5l11.4,0l8.5-32.2c0.9-3.5,1.4-7.1,1.4-7.1l0.1,0
	c0,0,0.5,3.6,1.4,7.1l8.2,32.3l11.4,0L70.2,0.2L60,0.2z"/>
</svg>
