<?xml version="1.0" encoding="utf-8"?>
<!-- Generator: Adobe Illustrator 19.1.0, SVG Export Plug-In . SVG Version: 6.00 Build 0)  -->
<svg version="1.1" id="Layer_1" xmlns="http://www.w3.org/2000/svg" xmlns:xlink="http://www.w3.org/1999/xlink" x="0px" y="0px"
	 viewBox="13 14.2 76.1 22.8" style="enable-background:new 13 14.2 76.1 22.8;" xml:space="preserve">
<style type="text/css">
	.st0{fill:#000444;}
</style>
<g>
	<path class="st0" d="M77.8,37c-4.2,0-8.5,0-12.7,0c0-0.2-0.2-0.2-0.3-0.2c-1.3,0-2.3-0.5-3.2-1.4c-0.4-0.4-0.7-0.9-1-1.3
		c-0.1-0.2-0.2-0.2-0.3,0c-0.3,0.8-1,1.3-1.5,1.8c-0.3,0.2-0.6,0.4-0.9,0.6c-0.6,0.2-1.2,0.4-1.9,0.3c-0.5-0.1-1.1,0-1.6-0.2
		c-1.1-0.3-2.5-1.4-3-2.6c-0.5-1.1-1.1-2.2-1.7-3.3c0-0.1-0.1-0.1-0.1-0.1s0,0.1-0.1,0.1c-0.3,0.6-0.6,1.2-0.9,1.9
		c-0.5,1-1,2.1-1.9,2.9c-0.9,0.8-1.9,1.3-3.1,1.3c-0.2,0-0.4,0-0.5,0c-0.9,0.1-1.8-0.2-2.5-0.8c-0.8-0.5-1.3-1-1.8-2
		c-0.7-1.3-1.3-2.6-2-3.8c-0.2-0.4-0.2-0.4-0.6-0.2c-0.7,0.4-1.4,0.6-2.2,0.6c-1.4,0-2.7,0-4.1,0c-0.3,0-0.4,0-0.4,0.3
		c0,0.7,0.1,1.4-0.1,2.1c-0.2,0.7-0.4,1.3-0.9,1.9c-1.3,1.7-3.1,2.1-5.1,1.9c-0.7-0.1-1.3-0.4-1.9-0.9c-0.6-0.5-1.1-1-1.5-1.7
		s-0.6-1.4-0.6-2.2c0-0.5,0-0.9,0-1.4c-0.5,0-1-0.1-1.4-0.1c-0.6,0-1.2-0.2-1.8-0.4c-1-0.4-1.7-1.1-2.2-2c-0.3-0.6-0.7-1.2-0.7-2
		c-0.1,0.1-0.2,0.1-0.3,0.1c0-0.4,0-0.7,0-1.1c0.2,0,0.1-0.2,0.2-0.3c0.1-0.7,0.3-1.3,0.6-1.8c0.6-0.9,1.4-1.6,2.4-2.1
		c0.4-0.2,0.8-0.3,1.3-0.3c0.6,0,1.2,0,1.8,0c0-0.6,0-1.2,0.1-1.8c0-0.2,0.3-1.2,0.4-1.4c0.2-0.7,0.6-1.2,1.1-1.7
		c1-1,2.1-1.4,3.4-1.4c3.9,0,7.9,0,11.8,0c0.6,0,1.1,0,1.7,0.1c0.5,0.1,1,0.3,1.5,0.5c1,0.5,1.8,1.3,2.2,2.3c0.5,1,1,2.1,1.6,3.1
		c0,0.1,0.1,0.1,0.2,0.2c0-0.1,0.1-0.1,0.1-0.2c0.3-0.6,0.6-1.2,0.9-1.8c0.5-1,0.9-2.1,1.8-2.9c0.9-0.8,1.9-1.2,3.1-1.3
		c0.4,0,0.8,0.1,1.2,0.1c0.6,0.1,1,0.4,1.5,0.5c0.9,0.6,1.6,1.3,2.1,2.3s1,2.1,1.6,3.2c0,0.1,0.1,0.1,0.1,0.2
		c0.1-0.1,0.2-0.1,0.2-0.2c0.5-1,1-2,1.5-3c0.3-0.6,0.7-1.1,1.2-1.6c1-1,2.2-1.5,3.5-1.5c4.7,0,9.3,0,14,0c0.9,0,1.8-0.1,2.7,0.1
		c0.3,0.1,0.6,0.1,0.9,0.3c0.7,0.3,1.3,0.8,1.8,1.3c0.8,0.9,1.3,1.9,1.3,3.1c0,0.5,0,1,0,1.5c0.5,0,1,0.1,1.5,0
		c0.5,0,0.9,0.1,1.3,0.2c1.3,0.4,2.3,1.3,2.9,2.4c0.3,0.5,0.4,1,0.5,1.6c0.1,1.2,0.2,1.1-0.2,2.3c-0.2,0.5-0.5,1-0.7,1.5
		c-0.7,1.2-2.4,2.1-3.9,2.1c-0.4,0-0.8,0-1.2,0c-0.2,0-0.2,0-0.2,0.2c0,0.4,0,0.8,0,1.2c0,0.3,0,0.5,0,0.8c-0.1,0.3-0.2,0.5-0.3,0.7
		c-0.2,0.8-0.7,1.5-1.3,2c-0.6,0.6-1.3,1-2.2,1.2c-0.3,0.1-0.6,0.1-0.9,0.1C78,36.9,77.8,36.8,77.8,37z M30.7,17.8c-2,0-4.1,0-6.1,0
		c-0.2,0-0.3,0-0.5,0c-0.3,0-1.1,0.6-1.2,0.9c0,0.4-0.1,0.7-0.1,1.1c0,1.3,0,2.6,0,3.9c0,0.2,0,0.3-0.3,0.3c-1.4,0-2.7,0-4.1,0
		c-0.5,0-1,0.2-1.4,0.6c-0.5,0.5-0.5,1-0.3,1.6c0.2,0.6,0.7,1,1.4,0.9c1.5,0,2.9,0,4.4,0c0.3,0,0.3,0.1,0.3,0.3c0,1.4,0,2.8,0,4.2
		c0,0.5,0.2,0.9,0.4,1.2c0.2,0.3,0.5,0.4,0.9,0.6c0.7,0.2,1.7-0.3,1.8-1.1c0.1-0.5,0.2-0.9,0.2-1.4c0-1.1,0-2.2,0-3.3
		c0-0.5,0-0.5,0.5-0.5c2.5,0,5,0,7.4,0c1.1,0,1.7-1.1,1.3-2c-0.3-0.7-0.9-1-1.6-1.1c-0.8,0-1.6,0-2.4,0c-1.6,0-3.3,0-4.9,0
		c-0.2,0-0.3,0-0.3-0.3c0-0.8,0-1.6,0-2.4c0-0.4,0-0.4,0.4-0.4c3.1,0,6.2,0,9.2,0c0.4,0,0.5,0.2,0.6,0.4c1.9,3.7,3.7,7.4,5.6,11.2
		c0.2,0.5,0.5,0.7,0.9,0.9c0.5,0.2,0.9,0.1,1.3-0.2c0.3-0.2,0.6-0.6,0.8-0.9c1-2.1,2.1-4.3,3.1-6.4c0.5-0.9,0.9-1.8,1.4-2.8
		c0-0.1,0.1-0.1,0.2-0.2c0,0.1,0.1,0.2,0.1,0.2c0.3,0.6,0.6,1.1,0.9,1.7c1.2,2.4,2.4,4.9,3.6,7.3c0.3,0.5,0.5,1,1.2,1.2
		c0.5,0.2,0.9,0.1,1.3-0.2c0.3-0.3,0.6-0.6,0.8-1c1.8-3.7,3.6-7.3,5.4-10.9c0.1-0.3,0.1-0.3,0.5-0.3c4.1,0,8.2,0,12.3,0
		c0.1,0,0.2,0,0.3,0c0.2,0,0.2,0.1,0.2,0.2c0,0.9,0,1.8,0,2.6c0,0.2-0.1,0.3-0.3,0.2c-0.2,0-0.4,0-0.5,0c-3.3,0-6.6,0-9.9,0
		c-0.4,0-0.8,0.1-1.2,0.3c-0.4,0.2-0.6,0.5-0.6,1c0,2.3,0,4.5,0,6.8c0,0.1,0,0.3,0.1,0.4c0.3,0.7,0.8,0.9,1.5,0.9c3.2,0,6.5,0,9.7,0
		c0.9,0,1.8,0,2.7,0c0.7,0,1.2-0.3,1.5-0.9c0.1-0.3,0.2-0.6,0.2-1c0-1.3,0-2.7,0-4c0-0.4,0-0.4,0.4-0.4c1.5,0,2.9,0,4.4,0
		c0.6,0,0.9-0.3,1.2-0.8c0.3-0.5,0.2-1,0-1.4c-0.4-0.6-0.9-0.9-1.6-0.9c-1.3,0-2.6,0-3.9,0c-0.5,0-0.5,0-0.5-0.5c0-1.3,0-2.7,0-4
		c0-1-0.7-1.7-1.7-1.7c-2.3,0-4.7,0-7,0c-2.8,0-5.7,0-8.5,0c-0.5,0-0.9,0.2-1.3,0.5c-0.2,0.2-0.4,0.4-0.5,0.7
		c-1.5,2.9-2.9,5.9-4.4,8.8c-0.1,0.2-0.2,0.3-0.3,0.4s-0.1,0.2-0.2,0c-0.8-1.6-1.5-3.1-2.3-4.7c-0.8-1.6-1.7-3.2-2.5-4.9
		c-0.4-1-1.8-1.1-2.4-0.4c-0.2,0.2-0.4,0.5-0.6,0.8c-1.5,3-3,6-4.5,9c0,0.1-0.1,0.1-0.2,0.2c0-0.1-0.1-0.1-0.1-0.2
		c-0.8-1.5-1.6-3.1-2.3-4.6c-0.8-1.5-1.5-3.1-2.3-4.6c-0.4-0.7-0.8-1-1.6-1C34.8,17.8,32.8,17.8,30.7,17.8z"/>
	<path class="st0" d="M71.5,27.1c1.4,0,2.8,0,4.2,0c0.6,0,0.6,0,0.6,0.7c0,0.6,0,1.3,0,1.9c0,0.6,0,0.7-0.7,0.7c-2.1,0-4.1,0-6.2,0
		c-0.8,0-1.5,0-2.3,0c-0.1,0-0.2,0-0.2-0.2c0-1,0-1.9,0-2.9c0-0.3,0.2-0.2,0.3-0.2C68.6,27.1,70,27.1,71.5,27.1z"/>
</g>
</svg>
